<svg width="40" height="40" viewBox="0 0 40 40" fill="none" xmlns="http://www.w3.org/2000/svg">
<path d="M22.6681 11.5628C22.6681 10.3086 21.6225 9.29199 20.3326 9.29199C19.0427 9.29199 17.997 10.3086 17.997 11.5628V19.1321C15.8483 19.1346 14.1071 20.8276 14.1045 22.9168V26.9671L17.2185 30.7518V31.9999H18.7755V30.2204L15.6615 26.4357V22.9168C15.6615 21.6626 16.7071 20.646 17.997 20.646V25.9445H19.5541V11.5628C19.5541 11.1447 19.9026 10.8059 20.3326 10.8059C20.7625 10.8059 21.1111 11.1447 21.1111 11.5628V18.1965L23.6568 18.8717L24.0663 17.4108L22.665 17.0399L22.6681 11.5628Z" fill="#021018"/>
<path d="M25.1584 19.2744L26.6606 19.6724L27.07 18.2118L25.5678 17.8138L25.1584 19.2744Z" fill="#021018"/>
<path d="M28.1633 20.0661L29.6744 20.4673V27.2062L27.3389 30.2339V31.9999H28.8959V30.7381L31.2314 27.7103V19.3107L28.5728 18.606L28.1633 20.0661Z" fill="#021018"/>
<path d="M12.3188 9.0703L11.218 8L8.33203 10.8059L11.218 13.6119L12.3188 12.5416L11.3122 11.5629H13.3254V10.049H11.3122L12.3188 9.0703Z" fill="#021018"/>
<path d="M15.6829 10.0493H15.6397C15.2217 10.0493 14.8828 10.3882 14.8828 10.8062C14.8828 11.2243 15.2217 11.5632 15.6397 11.5632H15.6829C16.1009 11.5632 16.4398 11.2243 16.4398 10.8062C16.4398 10.3882 16.1009 10.0493 15.6829 10.0493Z" fill="#021018"/>
<path d="M28.3455 12.5416L29.4463 13.6119L32.3322 10.8059L29.4463 8L28.3455 9.0703L29.3521 10.049H27.3389V11.5629H29.3521L28.3455 12.5416Z" fill="#021018"/>
<path d="M25.0247 10.0493H24.9815C24.5635 10.0493 24.2246 10.3882 24.2246 10.8062C24.2246 11.2243 24.5635 11.5632 24.9815 11.5632H25.0247C25.4427 11.5632 25.7816 11.2243 25.7816 10.8062C25.7816 10.3882 25.4427 10.0493 25.0247 10.0493Z" fill="#021018"/>
</svg>
